<?xml version="1.0" encoding="utf-8"?>
<svg version="1.1" id="logo" xmlns="http://www.w3.org/2000/svg" xmlns:xlink="http://www.w3.org/1999/xlink" x="0px" y="0px"
	 viewBox="0 0 482 231.6" style="enable-background:new 0 0 482 231.6;" xml:space="preserve">
<style type="text/css">
	.st0{fill:none;stroke:#2EA064;stroke-width:1.3;}
	.st1{fill:#2EA064;}
	.st2{fill:#D76F3F;}
	.st3{fill:#F2CA30;}
</style>
<title>Diona Logo</title>
<path class="st0" d="M190.7,194.1c-0.5,0.9-0.9,1.8-1.1,2.9c-1,4.3,2.6,6.5,10.6,6.4c1,0,1.8,0,2.5-0.1l16.3-28.4h-17.2L190.7,194.1
	z"/>
<path class="st0" d="M377.9,192.3c-0.5,1-0.9,2-1.1,3c-1,4.3,2.8,6.5,11.4,6.5l14.4-26.9H387L377.9,192.3z"/>
<path class="st1" d="M135.8,143.3c2.6-11.8-0.3-20.8-8.8-27.1c-7.2-5.3-17.1-8-29.6-8H24.7L9,127.2h72.6c8.9,0,15.2,1.7,18.7,5
	c4,3.8,5,9.9,3.1,18.5c-1.2,5.3-4.7,11.8-10.4,19.6c-6.5,8.9-15.3,16.4-26.5,22.4s-21.8,9.1-31.8,9.1l34.7-64.9H42.6l-41,77h24.7
	c17.1,0,34.1-3.5,49.9-10.2c17.7-7.4,32.2-17.8,43.6-31.3C128.4,162.2,133.8,152.4,135.8,143.3z"/>
<path class="st1" d="M0.5,214.5l41.7-78.3h28.3l-34.7,64.9c9.6-0.2,19.7-3.2,30.4-9l0,0c11.1-6,19.9-13.4,26.3-22.2l0,0
	c5.8-7.8,9.2-14.3,10.3-19.4l0,0c0.6-2.4,0.9-4.9,0.9-7.5l0,0c0-4.6-1.3-8.1-3.8-10.4l0,0c-3.4-3.1-9.4-4.8-18.3-4.8h-74l16.8-20.2
	h73c12.7,0,22.7,2.7,30,8.1l0,0c6.4,4.5,10.2,11.9,10,19.7l0,0c0,2.7-0.3,5.4-0.9,8l0,0c-2.1,9.3-7.4,19.1-16.1,29.3l0,0
	c-11.5,13.5-26.1,24-43.8,31.5l0,0c-15.9,6.7-32.9,10.2-50.1,10.3L0.5,214.5L0.5,214.5z M2.7,213.2h23.7c17.1,0,33.9-3.5,49.6-10.2
	l0,0c17.6-7.3,32-17.7,43.3-31.1l0,0c8.6-10.2,13.8-19.8,15.8-28.8l0,0c0.6-2.5,0.9-5.2,0.9-7.8l0,0c0.2-7.4-3.3-14.4-9.4-18.7l0,0
	c-7-5.2-16.8-7.8-29.2-7.8H25l-14.6,17.7h71.2c9,0,15.4,1.6,19.2,5.1l0,0c2.8,2.7,4.2,6.5,4.2,11.4l0,0c-0.1,2.6-0.4,5.2-1,7.7l0,0
	c-1.2,5.4-4.7,12-10.6,19.9l0,0c-6.6,9-15.5,16.5-26.7,22.6l0,0c-11.2,6.1-21.9,9.1-32.1,9.1h-1l34.7-64.9H43L2.7,213.2z"/>
<path class="st1" d="M159.9,150.1c5.5,0,10.8-1.9,15.1-5.3c4.4-3.1,7.4-7.6,8.7-12.8c1.1-5,0.1-9.2-3-12.7
	c-3.1-3.5-7.4-5.3-12.8-5.3c-5.5,0-10.9,1.8-15.3,5.3c-4.7,3.5-7.5,7.7-8.6,12.7c-1.1,5-0.1,9.2,3,12.8
	C150,148.3,154.3,150.1,159.9,150.1z"/>
<path class="st1" d="M146.4,145.3c-2.3-2.6-3.6-5.9-3.6-9.4l0,0c0-1.3,0.2-2.7,0.4-4l0,0c1.1-5.1,4.1-9.5,8.9-13.1l0,0
	c4.5-3.5,10-5.4,15.7-5.4l0,0c5.6,0,10.1,1.8,13.3,5.5l0,0c2.3,2.6,3.6,5.9,3.6,9.4l0,0c0,1.3-0.2,2.6-0.4,3.9l0,0
	c-1.3,5.3-4.4,10-8.9,13.1l0,0c-4.4,3.5-9.9,5.4-15.6,5.4l0,0v-1.3c5.4,0,10.6-1.8,14.8-5.1l0,0c4.6-3.4,7.3-7.6,8.4-12.4l0,0
	c0.3-1.2,0.4-2.4,0.4-3.6l0,0c0-3.2-1.1-6.2-3.3-8.5l0,0c-3-3.4-7-5-12.3-5l0,0c-5.4,0-10.7,1.8-14.9,5.1l0,0
	c-4.6,3.4-7.3,7.5-8.4,12.3l0,0c-0.3,1.2-0.4,2.4-0.4,3.7l0,0c0,3.2,1.1,6.2,3.2,8.5l0,0c3,3.4,7.1,5,12.5,5l0,0v1.3l0,0
	C154.2,150.7,149.6,148.9,146.4,145.3L146.4,145.3z"/>
<path class="st1" d="M414.8,201.8l21-39H394c-10-0.1-19.8,2.7-28.1,8.3c-8.8,5.6-15.1,14.5-17.2,24.8c-0.5,2-0.7,4-0.6,6h-20.2
	l14.7-27.4c1.1-1.9,2-3.9,2.5-6.1c1.1-4.9-0.8-7.4-5.7-7.6c-7.3-0.2-14.6,2.4-22.1,7.7l-27.5,19.9l11.7-22c0.8-1.1,1.4-2.3,2-3.5
	h-93.2c-11,0-20.4,2.3-28,6.8c-6.9,4-12.3,10.3-15.2,17.8c-0.5,1.3-1,2.7-1.3,4.1c-0.9,3.4-0.7,7,0.4,10.3h-21.5l20.8-39h-26.9
	l-19.5,36.5c-1,1.7-1.8,3.5-2.3,5.5c-1.3,6,1.6,9,8.7,9h29.7c3.5,0,6.9-0.8,10.1-2.3c2-0.9,3.8-2.1,5.4-3.5c5.3,4.7,13.9,7.1,25.7,7
	c10.2-0.1,18.9-2.4,26.3-6.9c7.4-4.4,12.9-11.4,15.4-19.6c0.7-2.5,0.8-5.1,0.4-7.6c-0.4-2.9-1.3-4.9-2.7-6h34.4l-20.8,39H263
	c3.9,0,9.2-2.1,16.1-6.3l30.4-21.9l-8.6,16.2c-1,1.6-1.7,3.4-2.2,5.2c-1,4.5,1.9,6.8,8.8,6.8h30c3.7,0,7.3-0.8,10.6-2.3
	c1-0.4,2-1,3-1.5c2.9,3.5,7.2,5.3,13,5.3c8,0,15.4-3.1,22.2-9.3c-1.2,5.2,2.3,7.9,10.4,7.9h28.5c9.9,0,16.9-4,21.1-12.1L414.8,201.8
	z M202.6,203.3c-0.7,0-1.6,0.1-2.5,0.1c-8,0-11.5-2.1-10.6-6.4c0.2-1,0.6-2,1.1-2.9l11-19.2h17.2L202.6,203.3z M388.2,201.8
	c-8.5,0-12.3-2.2-11.4-6.5c0.3-1,0.6-2,1.1-3l9.1-17.4h15.5L388.2,201.8z"/>
<path class="st1" d="M350.9,210.9c-0.8,0.5-1.7,0.9-2.6,1.3l0,0c-3.4,1.5-7.1,2.3-10.9,2.3h-30c-3.1,0-5.4-0.4-7.1-1.4l0,0
	c-1.6-0.9-2.6-2.6-2.6-4.4l0,0c0-0.6,0.1-1.2,0.2-1.8l0,0c0.5-1.9,1.3-3.7,2.3-5.4l0,0l7.3-13.7l-28.1,20.3
	c-7,4.2-12.4,6.4-16.5,6.4h-14.7l20.8-39h-31.8c1,1.6,1.7,3.4,1.8,5.3l0,0c0.1,1.1,0.2,2.1,0.2,3.2l0,0c0,1.6-0.2,3.2-0.7,4.7l0,0
	c-2.5,8.4-8.1,15.5-15.7,20l0,0c-7.5,4.6-16.4,7-26.6,7h-0.7c-11.2,0-19.6-2.2-25-6.8l0,0c-1.6,1.3-3.3,2.4-5.1,3.2l0,0
	c-3.3,1.5-6.8,2.3-10.4,2.3h-29.6c-3.1,0-5.5-0.5-7.2-1.7l0,0c-1.7-1.2-2.7-3.2-2.5-5.3l0,0c0-0.9,0.1-1.8,0.3-2.7l0,0
	c0.5-2,1.3-3.9,2.3-5.6l0,0l19.7-36.9h28.4l-20.8,39h19.6c-0.5-1.6-0.7-3.3-0.7-5l0,0c0-1.6,0.2-3.2,0.6-4.8l0,0
	c0.3-1.4,0.8-2.8,1.3-4.1l0,0c3-7.6,8.4-14,15.5-18.1l0,0c7.7-4.6,17.2-6.9,28.3-6.9h94.2l-0.4,0.9c-0.6,1.2-1.2,2.4-2,3.5l0,0
	l-10.4,19.5l25.2-18.2c7.2-5.2,14.5-7.9,21.7-7.9h0.8c4.2,0.1,6.7,2.2,6.6,5.8l0,0c0,0.9-0.1,1.7-0.3,2.5l0,0
	c-0.5,2.2-1.4,4.3-2.6,6.2l0,0l-14.2,26.5h18.4v-0.2l0,0c0-1.8,0.2-3.5,0.6-5.2l0,0c2.2-10.4,8.5-19.5,17.5-25.1l0,0
	c8.5-5.6,18.4-8.5,28.6-8.4h42.9l-21,39h31.4l-0.5,0.9c-4.3,8.2-11.6,12.4-21.6,12.4h-28.5c-3.6,0-6.4-0.5-8.3-1.6l0,0
	c-1.9-1-3.1-2.9-3-5.1l0,0v-0.2l0,0c-6.6,5.5-13.7,8.4-21.3,8.4l0,0C358.4,216,353.9,214.3,350.9,210.9L350.9,210.9z M351.5,209.7
	c2.7,3.3,6.8,5,12.5,5l0,0c7.8,0,15-3,21.8-9.2l0,0l1.5-1.4l-0.5,2c-0.1,0.6-0.2,1.1-0.2,1.7l0,0c-0.1,1.7,0.8,3.2,2.3,3.9l0,0
	c1.6,0.9,4.2,1.4,7.6,1.4h28.5c9.3,0,15.8-3.6,20-10.7h-30.3v-0.7l0.6,0.3l-0.6-0.3v0.7h-1.1l21-39H394c-9.9-0.1-19.6,2.7-27.8,8.1
	l0,0c-8.7,5.5-14.9,14.3-17,24.5l0,0c-0.4,1.6-0.6,3.3-0.6,4.9l0,0c0,0.3,0,0.6,0,0.9l0,0v0.7h-22L342,174c1.1-1.8,1.9-3.8,2.5-5.9
	l0,0c0.2-0.7,0.3-1.5,0.3-2.3l0,0c-0.1-3-1.5-4.3-5.4-4.5l0,0h-0.8l0,0c-6.9,0-13.8,2.5-20.9,7.6l0,0l-27.5,19.9l-1-0.8l11.8-22.1
	c0.5-0.8,1-1.6,1.5-2.4h-92.2c-10.9,0-20.1,2.2-27.6,6.7l0,0c-6.8,4-12.1,10.1-15,17.5l0,0c-0.5,1.3-0.9,2.6-1.2,3.9l0,0
	c-0.3,1.5-0.5,3-0.5,4.5l0,0c0,1.8,0.3,3.7,0.9,5.4l0,0l0.3,0.9h-23.6l20.8-39h-25.5l-19.3,36.2c-1,1.6-1.7,3.4-2.2,5.3l0,0
	c-0.2,0.8-0.3,1.6-0.3,2.5l0,0c0.1,3.9,2.5,5.7,8.4,5.8h29.7c3.4,0,6.7-0.7,9.8-2.1l0,0c1.9-0.9,3.6-2,5.2-3.4l0,0l0.4-0.4l0.4,0.4
	c5,4.5,13.1,6.8,24.5,6.8h0.7c10.1-0.1,18.7-2.3,26-6.8l0,0c7.3-4.3,12.7-11.2,15.1-19.3l0,0c0.4-1.4,0.6-2.9,0.6-4.3l0,0
	c0-1-0.1-2-0.2-3l0,0c-0.4-2.8-1.3-4.7-2.5-5.6l0,0l-1.5-1.2h37.3l-20.8,38.9H263c3.6,0,9-2,15.8-6.2l0,0l30.3-21.9l1,0.8l-8.6,16.2
	c-1,1.6-1.7,3.3-2.1,5.1l0,0c-0.1,0.5-0.2,1-0.2,1.5l0,0c0,2.9,2.4,4.4,8.3,4.5h30c3.6,0,7.1-0.8,10.4-2.2l0,0c1-0.4,2-0.9,2.9-1.5
	l0,0l0.5-0.3L351.5,209.7L351.5,209.7z M191.8,202.7c-1.8-0.7-3-2.5-3.1-4.4l0,0c0-0.5,0.1-1,0.2-1.4l0,0c0.3-1.1,0.7-2.1,1.2-3l0,0
	l11.2-19.5H220l-16.8,29.4l-0.2,0.3h-0.4c-0.7,0.1-1.6,0.1-2.5,0.1l0,0C196.5,204,193.8,203.6,191.8,202.7L191.8,202.7z
	 M191.3,194.4c-0.5,0.8-0.9,1.7-1.1,2.7l0,0c-0.1,0.4-0.1,0.8-0.1,1.1l0,0c0,1.5,0.7,2.5,2.3,3.3l0,0c1.6,0.8,4.2,1.2,7.8,1.2l0,0
	c0.8,0,1.5,0,2.1-0.1l0,0l15.5-27.1h-15.7L191.3,194.4L191.3,194.4z M388.2,202.5c-3.9,0-6.8-0.4-8.9-1.4l0,0
	c-1.9-0.7-3.2-2.5-3.3-4.5l0,0c0-0.5,0.1-0.9,0.2-1.4l0,0c0.3-1.1,0.7-2.2,1.2-3.2l0,0l9.3-17.8h17l-14.9,27.9l-0.2,0.3H388.2z
	 M388.2,201.8L388.2,201.8z M378.5,192.6c-0.5,0.9-0.8,1.9-1.1,2.9l0,0c-0.1,0.4-0.1,0.7-0.1,1.1l0,0c0,1.5,0.7,2.5,2.5,3.4l0,0
	c2.6,0.9,5.3,1.4,8,1.3l0,0l13.7-25.6h-14L378.5,192.6L378.5,192.6z"/>
<polygon class="st2" points="361,16 280.2,16 207.6,150.1 288.4,150.1 "/>
<polygon class="st3" points="432.6,46 351.8,46 295.4,150.1 376.2,150.1 "/>
<polygon class="st1" points="441.9,150.1 482,76 423.4,76 383.3,150.1 "/>
</svg>
